<svg width="802" height="512" viewBox="0 0 802 512" fill="none" xmlns="http://www.w3.org/2000/svg">
<g clip-path="url(#clip0_139_18)">
<path d="M860 531H663C663 531 712.166 429 769.694 429H860V531Z" fill="#A1A1A1"/>
<path d="M804.5 531H510C510 531 583.5 464 669.5 464H804.5V531Z" fill="#636363"/>
<path d="M1142 629C1142 749.95 1043.95 848 923 848C802.05 848 704 749.95 704 629C704 508.05 802.05 410 923 410C1043.95 410 1142 508.05 1142 629Z" fill="#5C6C8C"/>
<path d="M649 205.5C649 150.5 543.624 150.5 574 150.5H965V207.5H649V205.5Z" fill="#828181"/>
<path d="M722 166C722 135.624 746.624 111 777 111H1038V168H722V166Z" fill="#6D6C55"/>
<path d="M464 -117C464 3.95036 365.95 102 245 102C124.05 102 26 3.95036 26 -117C26 -237.95 124.05 -336 245 -336C365.95 -336 464 -237.95 464 -117Z" fill="#EFEFEF"/>
</g>
<defs>
<clipPath id="clip0_139_18">
<rect width="802" height="512" fill="white"/>
</clipPath>
</defs>
</svg>
